<svg id="Capa_1" enable-background="new 0 0 512.01 512.01" height="512" viewBox="0 0 512.01 512.01" width="512" xmlns="http://www.w3.org/2000/svg"><g><path d="m450.015 289.797c40.674-33.179 61.99-72.064 61.99-113.787 0-74.439-61.01-135-136-135-39.91 0-73.951 10.831-100.297 41.229-12.691-5.035-28.605-9.229-43.703-9.229-61.206 0-111 49.794-111 111 0 53.25 42.202 101.193 96.636 111.134-1.892 13.356.51 26.586 6.609 38.15-22.369 9.125-39.973 28.733-45.451 51.716h-23.272c-5.039-9.506-15.034-16-26.521-16h-34c-14.493 0-26.618 10.331-29.399 24.015-1.208-.023-.905-.015-35.601-.015-16.542 0-30 13.458-30 30v34c0 16.542 13.458 30 30 30 34.75 0 34.213.006 35.423-.011 2.384 14.175 14.735 25.011 29.577 25.011h34c14.838 0 27.187-10.831 29.575-25h249.425c57.346 0 104-46.206 104-103-.001-41.995-25.513-78.196-61.991-94.213zm-420.01 167.213v-34h35v34zm99 25h-34c0-18.692 0-66.194 0-83h34zm279-25h-249v-42h33c8.284 0 15-6.716 15-15 0-20.78 18.877-39.809 40.611-41.987 9.471 5.701 20.552 8.987 32.389 8.987 8.284 0 15-6.716 15-15s-6.716-15-15-15c-18.196 0-33-14.804-33-33s14.804-33 33-33c8.284 0 15-6.716 15-15s-6.716-15-15-15c-20.723 0-39.136 10.061-50.625 25.551-42.589-4.15-78.375-40.942-78.375-82.551 0-44.664 36.337-81 81-81 8.196 0 17.485 1.964 25.911 4.706-5.458 9.53-10.663 20.364-15.778 32.767-3.158 7.659.489 16.428 8.148 19.586 7.661 3.16 16.428-.49 19.586-8.147 24.638-59.738 52.41-80.911 106.133-80.911 58.448 0 106 47.103 106 105 0 47.703-37.554 83.094-70.749 105.055-16.218-.491-31.756 2.665-46.217 9.311-7.527 3.459-10.825 12.366-7.366 19.893 3.458 7.526 12.36 10.825 19.894 7.367 47.768-21.953 104.438 12.779 104.438 66.375 0 40.251-33.196 72.998-74 72.998z"/><path d="m104.005 95.01c25.916 0 47-21.084 47-47 0-12.497-4.811-24.396-13.545-33.508-18.533-19.334-48.373-19.339-66.91 0-8.734 9.111-13.545 21.011-13.545 33.508 0 25.916 21.084 47 47 47zm0-65c9.056 0 17 8.411 17 18 0 9.374-7.626 17-17 17s-17-7.626-17-17c0-9.589 7.944-18 17-18z"/></g></svg>