<svg id="Capa_1" enable-background="new 0 0 512 512" height="512" viewBox="0 0 512 512" width="512" xmlns="http://www.w3.org/2000/svg" xmlns:xlink="http://www.w3.org/1999/xlink"><linearGradient id="SVGID_1_" gradientUnits="userSpaceOnUse" x1="256" x2="256" y1="466" y2="46"><stop offset="0" stop-color="#00b59c"/><stop offset="1" stop-color="#9cffac"/></linearGradient><g><g><path d="m302 346h-197c-8.284 0-15 6.716-15 15s6.716 15 15 15h197c16.542 0 30 13.458 30 30s-13.458 30-30 30-30-13.458-30-30c0-8.284-6.716-15-15-15s-15 6.716-15 15c0 33.084 26.916 60 60 60s60-26.916 60-60-26.916-60-60-60zm-257-90h197c33.084 0 60-26.916 60-60s-26.916-60-60-60-60 26.916-60 60c0 8.284 6.716 15 15 15s15-6.716 15-15c0-16.542 13.458-30 30-30s30 13.458 30 30-13.458 30-30 30h-197c-8.284 0-15 6.716-15 15s6.716 15 15 15zm467-15c0-41.355-33.645-75-75-75s-75 33.645-75 75c0 8.284 6.716 15 15 15s15-6.716 15-15c0-24.813 20.187-45 45-45s45 20.187 45 45-20.187 45-45 45h-422c-8.284 0-15 6.716-15 15s6.716 15 15 15h422c41.355 0 75-33.645 75-75zm-45-105c8.284 0 15-6.716 15-15s-6.716-15-15-15-15 6.716-15 15 6.716 15 15 15zm-60 300c-8.284 0-15 6.716-15 15s6.716 15 15 15 15-6.716 15-15-6.716-15-15-15zm60-90c-24.813 0-45 20.187-45 45s20.187 45 45 45 45-20.187 45-45-20.187-45-45-45zm0 60c-8.271 0-15-6.729-15-15s6.729-15 15-15 15 6.729 15 15-6.729 15-15 15zm-120-270c24.813 0 45-20.187 45-45s-20.187-45-45-45-45 20.187-45 45 20.187 45 45 45zm0-60c8.271 0 15 6.729 15 15s-6.729 15-15 15-15-6.729-15-15 6.729-15 15-15z" fill="url(#SVGID_1_)"/></g></g></svg>